<svg xmlns="http://www.w3.org/2000/svg" viewBox="0 0 64 64" role="img" aria-label="AnimeClaw">
  <defs>
    <linearGradient id="ac-mark-bg" x1="8" y1="4" x2="58" y2="60" gradientUnits="userSpaceOnUse">
      <stop stop-color="#2a1220"/>
      <stop offset="1" stop-color="#12080e"/>
    </linearGradient>
    <linearGradient id="ac-mark-petal" x1="18" y1="14" x2="48" y2="46" gradientUnits="userSpaceOnUse">
      <stop stop-color="#ff8cc8"/>
      <stop offset=".48" stop-color="#ff5ea8"/>
      <stop offset="1" stop-color="#7c5cff"/>
    </linearGradient>
    <linearGradient id="ac-mark-claw" x1="12" y1="20" x2="52" y2="50" gradientUnits="userSpaceOnUse">
      <stop stop-color="#ffe3f2"/>
      <stop offset="1" stop-color="#ff7ab6"/>
    </linearGradient>
  </defs>
  <rect width="64" height="64" rx="16" fill="url(#ac-mark-bg)"/>
  <rect x="11" y="11" width="42" height="42" rx="4" fill="none" stroke="#ff8cc8" stroke-opacity=".35" stroke-width="1.5"/>
  <path d="M14 20h18M14 20v16" fill="none" stroke="#c4b5fd" stroke-opacity=".55" stroke-width="1.25"/>
  <path d="M36.5 16c4.2 3.1 6.6 8.4 4.8 13.2-1.7 4.6-7 7.1-12.2 5.8 2.4-1.6 3.8-4.4 3.2-7.4-.6-3.1-3-5.5-6-6.4 3.6-2.8 7.4-5.2 10.2-5.2z" fill="url(#ac-mark-petal)"/>
  <path d="M18 42c7.5-2.2 14.8-8.4 18.8-15.6" fill="none" stroke="url(#ac-mark-claw)" stroke-width="3.2" stroke-linecap="round"/>
  <path d="M22 48c8.2-1.4 16.6-7.2 21.4-14.4" fill="none" stroke="url(#ac-mark-claw)" stroke-width="2.4" stroke-linecap="round" opacity=".85"/>
  <path d="M28 52c7.4-.6 14.2-5.4 18.6-11.6" fill="none" stroke="#c4b5fd" stroke-width="1.8" stroke-linecap="round" opacity=".9"/>
</svg>
